<svg width="24" height="25" viewBox="0 0 24 25" fill="none" xmlns="http://www.w3.org/2000/svg">
  <path d="M19.25 3.31177H4.75C3.64543 3.31177 2.75 4.2072 2.75 5.31177V19.8118C2.75 20.9163 3.64543 21.8118 4.75 21.8118H19.25C20.3546 21.8118 21.25 20.9163 21.25 19.8118V5.31177C21.25 4.2072 20.3546 3.31177 19.25 3.31177Z" stroke="black" stroke-width="0.5" stroke-linecap="round" stroke-linejoin="round"/>
  <path d="M16.375 10.3118C15.8114 10.3118 15.2709 10.0879 14.8724 9.68937C14.4739 9.29085 14.25 8.75035 14.25 8.18677C14.25 7.62318 14.0261 7.08268 13.6276 6.68417C13.2291 6.28565 12.6886 6.06177 12.125 6.06177H11.875C11.3114 6.06177 10.7709 6.28565 10.3724 6.68417C9.97388 7.08268 9.75 7.62318 9.75 8.18677C9.75 8.75035 9.52612 9.29085 9.1276 9.68937C8.72909 10.0879 8.18859 10.3118 7.625 10.3118C7.06141 10.3118 6.52091 10.5357 6.1224 10.9342C5.72388 11.3327 5.5 11.8732 5.5 12.4368V12.6868C5.5 13.2504 5.72388 13.7909 6.1224 14.1894C6.52091 14.5879 7.06141 14.8118 7.625 14.8118C8.18859 14.8118 8.72909 15.0357 9.1276 15.4342C9.52612 15.8327 9.75 16.3732 9.75 16.9368C9.75 17.5004 9.97388 18.0409 10.3724 18.4394C10.7709 18.8379 11.3114 19.0618 11.875 19.0618H12.125C12.6886 19.0618 13.2291 18.8379 13.6276 18.4394C14.0261 18.0409 14.25 17.5004 14.25 16.9368C14.25 16.3732 14.4739 15.8327 14.8724 15.4342C15.2709 15.0357 15.8114 14.8118 16.375 14.8118C16.9386 14.8118 17.4791 14.5879 17.8776 14.1894C18.2761 13.7909 18.5 13.2504 18.5 12.6868V12.4368C18.5 11.8732 18.2761 11.3327 17.8776 10.9342C17.4791 10.5357 16.9386 10.3118 16.375 10.3118Z" stroke="black" stroke-width="0.5" stroke-linecap="round" stroke-linejoin="round"/>
  <path d="M16.685 14.0642C16.2866 13.6657 16.0627 13.1253 16.0627 12.5617C16.0627 11.9982 16.2866 11.4577 16.685 11.0592C17.0835 10.6607 17.3073 10.1203 17.3073 9.55674C17.3073 8.9932 17.0835 8.45275 16.685 8.05424L16.508 7.87724C16.1095 7.47879 15.5691 7.25494 15.0055 7.25494C14.442 7.25494 13.9015 7.47879 13.503 7.87724C13.3057 8.07461 13.0714 8.23117 12.8136 8.33799C12.5557 8.44481 12.2794 8.49979 12.0003 8.49979C11.7212 8.49979 11.4448 8.44481 11.187 8.33799C10.9291 8.23117 10.6949 8.07461 10.4975 7.87724C10.099 7.47879 9.55857 7.25494 8.99503 7.25494C8.4315 7.25494 7.89104 7.47879 7.49253 7.87724L7.31553 8.05374C6.91708 8.45225 6.69324 8.9927 6.69324 9.55624C6.69324 10.1198 6.91708 10.6602 7.31553 11.0587C7.5129 11.2561 7.66947 11.4903 7.77628 11.7482C7.8831 12.006 7.93808 12.2824 7.93808 12.5615C7.93808 12.8406 7.8831 13.1169 7.77628 13.3748C7.66947 13.6326 7.5129 13.8669 7.31553 14.0642C6.91708 14.4627 6.69324 15.0032 6.69324 15.5667C6.69324 16.1303 6.91708 16.6707 7.31553 17.0692L7.49203 17.2462C7.89054 17.6447 8.431 17.8685 8.99453 17.8685C9.55807 17.8685 10.0985 17.6447 10.497 17.2462C10.6944 17.0489 10.9286 16.8923 11.1865 16.7855C11.4443 16.6787 11.7207 16.6237 11.9998 16.6237C12.2789 16.6237 12.5552 16.6787 12.8131 16.7855C13.0709 16.8923 13.3052 17.0489 13.5025 17.2462C13.901 17.6447 14.4415 17.8685 15.005 17.8685C15.5686 17.8685 16.109 17.6447 16.5075 17.2462L16.6845 17.0697C17.083 16.6712 17.3068 16.1308 17.3068 15.5672C17.3068 15.0037 17.083 14.4632 16.6845 14.0647" stroke="black" stroke-width="0.5" stroke-linecap="round" stroke-linejoin="round"/>
</svg>
