<svg width="169" height="169" viewBox="0 0 169 169" fill="none" xmlns="http://www.w3.org/2000/svg">
<rect width="169" height="169" rx="84.5" fill="white"/>
<path d="M45.775 46.435C50.775 42.26 57.22 39.5 62.75 39.5C67.095 39.5 70.505 40.19 73.285 41.35C76.085 42.525 78.045 44.09 79.56 45.565C80.22 46.215 80.81 46.855 81.295 47.385L81.445 47.55C81.995 48.15 82.38 48.56 82.745 48.885C83.365 49.435 83.645 49.5 84 49.5C84.355 49.5 84.635 49.435 85.25 48.885C85.62 48.56 86.01 48.15 86.555 47.55L86.705 47.385C87.195 46.855 87.78 46.21 88.44 45.565C90.2372 43.7659 92.3688 42.3358 94.715 41.355C97.495 40.19 100.9 39.5 105.25 39.5C110.78 39.5 117.225 42.26 122.225 46.435C127.255 50.635 131.5 56.84 131.5 64.24C131.5 68.13 131.49 75.77 124.635 83.93C122.785 86.855 121.515 90.305 121.5 93.27C121.45 102.9 119.315 111.035 116.085 116.895C113.005 122.495 108.305 127 102.75 127C100.96 127 99.295 126.5 97.87 125.45C96.6086 124.479 95.6114 123.207 94.97 121.75C93.775 119.19 93.255 115.88 92.88 112.735C92.7264 111.406 92.5831 110.076 92.45 108.745C91.875 103.2 91.28 97.445 89.315 92.265C88.385 90.48 86.785 89.5 85.25 89.5H82.75C81.18 89.5 79.535 90.525 78.62 92.4C75.9 97.95 75.565 104.215 75.24 110.225L75.11 112.565C74.925 115.64 74.635 119.045 73.46 121.695C72.8054 123.241 71.7317 124.572 70.36 125.54C68.8425 126.53 67.0615 127.039 65.25 127C59.05 127 54.305 122.645 51.3 116.8C48.265 110.9 46.55 102.77 46.5 93.27C46.485 90.61 45.465 87.545 43.88 84.785C43.4943 84.1715 43.056 83.5926 42.57 83.055C36.5 75.85 36.5 67.9 36.5 64.33V64.24C36.5 56.84 40.745 50.635 45.775 46.435ZM102.75 54.5C101.755 54.5 100.802 54.8951 100.098 55.5983C99.3951 56.3016 99 57.2554 99 58.25C99 59.2446 99.3951 60.1984 100.098 60.9017C100.802 61.6049 101.755 62 102.75 62C106.32 62 109 64.68 109 68.25C109 69.2446 109.395 70.1984 110.098 70.9016C110.802 71.6049 111.755 72 112.75 72C113.745 72 114.698 71.6049 115.402 70.9016C116.105 70.1984 116.5 69.2446 116.5 68.25C116.52 66.4387 116.178 64.6417 115.494 62.9644C114.81 61.2871 113.798 59.7633 112.517 58.4825C111.237 57.2017 109.713 56.1896 108.036 55.5057C106.358 54.8218 104.561 54.4799 102.75 54.5Z" fill="black"/>
</svg>
