<svg width="169" height="169" viewBox="0 0 169 169" fill="none" xmlns="http://www.w3.org/2000/svg">
<rect width="169" height="169" rx="84.5" fill="white"/>
<path d="M34 129.5V84.5C34 81.75 34.98 79.3967 36.94 77.44C38.9 75.4834 41.2533 74.5034 44 74.5H69V84.5C69 88.6667 70.4583 92.2084 73.375 95.125C76.2917 98.0417 79.8333 99.5 84 99.5C88.1667 99.5 91.7083 98.0417 94.625 95.125C97.5417 92.2084 99 88.6667 99 84.5V74.5H124C126.75 74.5 129.105 75.48 131.065 77.44C133.025 79.4 134.003 81.7534 134 84.5V129.5H34ZM84 89.5C82.5833 89.5 81.3967 89.02 80.44 88.06C79.4833 87.1 79.0033 85.9134 79 84.5C79 75.4167 80.0417 66.4584 82.125 57.625C84.2083 48.7917 88.75 41.5 95.75 35.75C96.8333 34.8334 98.0417 34.4367 99.375 34.56C100.708 34.6834 101.833 35.2884 102.75 36.375C103.667 37.4617 104.063 38.67 103.94 40C103.817 41.33 103.212 42.455 102.125 43.375C96.2917 48.2917 92.6467 54.4584 91.19 61.875C89.7333 69.2917 89.0033 76.8334 89 84.5C89 85.9167 88.52 87.105 87.56 88.065C86.6 89.025 85.4133 89.5034 84 89.5ZM52.75 102C53.8333 102 54.73 101.645 55.44 100.935C56.15 100.225 56.5033 99.33 56.5 98.25C56.4967 97.17 56.1417 96.275 55.435 95.565C54.7283 94.855 53.8333 94.5 52.75 94.5C51.6667 94.5 50.7717 94.855 50.065 95.565C49.3583 96.275 49.0033 97.17 49 98.25C48.9967 99.33 49.3517 100.227 50.065 100.94C50.7783 101.653 51.6733 102.007 52.75 102ZM57.75 114.5C58.8333 114.5 59.73 114.145 60.44 113.435C61.15 112.725 61.5033 111.83 61.5 110.75C61.4967 109.67 61.1417 108.775 60.435 108.065C59.7283 107.355 58.8333 107 57.75 107C56.6667 107 55.7717 107.355 55.065 108.065C54.3583 108.775 54.0033 109.67 54 110.75C53.9967 111.83 54.3517 112.727 55.065 113.44C55.7783 114.153 56.6733 114.507 57.75 114.5ZM115.25 102C116.333 102 117.23 101.645 117.94 100.935C118.65 100.225 119.003 99.33 119 98.25C118.997 97.17 118.642 96.275 117.935 95.565C117.228 94.855 116.333 94.5 115.25 94.5C114.167 94.5 113.272 94.855 112.565 95.565C111.858 96.275 111.503 97.17 111.5 98.25C111.497 99.33 111.852 100.227 112.565 100.94C113.278 101.653 114.173 102.007 115.25 102Z" fill="black"/>
</svg>
