<svg width="169" height="169" viewBox="0 0 169 169" fill="none" xmlns="http://www.w3.org/2000/svg">
  <rect width="169" height="169" rx="84.5" fill="white"/>
  <path d="M84.5 52.375C55.417 52.375 30.542 69.062 20.25 93.625c10.292 24.563 35.167 41.25 64.25 41.25s53.958-16.687 64.25-41.25c-10.292-24.563-35.167-41.25-64.25-41.25zm0 68.438c-16.417 0-29.75-13.334-29.75-29.75s13.333-29.75 29.75-29.75 29.75 13.334 29.75 29.75-13.333 29.75-29.75 29.75zm0-47.708c-9.834 0-17.958 8.124-17.958 17.958s8.124 17.958 17.958 17.958 17.958-8.124 17.958-17.958-8.124-17.958-17.958-17.958z" fill="#000"/>
</svg>