<svg width="57" height="56" viewBox="0 0 57 56" fill="none" xmlns="http://www.w3.org/2000/svg">
<path d="M49.625 1H7.33333C4.11167 1 1.5 3.61167 1.5 6.83333V49.125C1.5 52.3467 4.11167 54.9583 7.33333 54.9583H49.625C52.8467 54.9583 55.4583 52.3467 55.4583 49.125V6.83333C55.4583 3.61167 52.8467 1 49.625 1Z" stroke="black" stroke-width="1.45833" stroke-linecap="round" stroke-linejoin="round"/>
<path d="M41.2393 21.4167C39.5955 21.4167 38.019 20.7637 36.8567 19.6014C35.6943 18.439 35.0413 16.8626 35.0413 15.2188C35.0413 13.575 34.3883 11.9985 33.226 10.8362C32.0637 9.67387 30.4872 9.02087 28.8434 9.02087H28.1143C26.4705 9.02087 24.894 9.67387 23.7317 10.8362C22.5693 11.9985 21.9163 13.575 21.9163 15.2188C21.9163 16.8626 21.2633 18.439 20.101 19.6014C18.9387 20.7637 17.3622 21.4167 15.7184 21.4167C14.0746 21.4167 12.4982 22.0697 11.3358 23.232C10.1735 24.3944 9.52051 25.9708 9.52051 27.6146V28.3438C9.52051 29.9876 10.1735 31.564 11.3358 32.7264C12.4982 33.8887 14.0746 34.5417 15.7184 34.5417C17.3622 34.5417 18.9387 35.1947 20.101 36.357C21.2633 37.5194 21.9163 39.0958 21.9163 40.7396C21.9163 42.3834 22.5693 43.9599 23.7317 45.1222C24.894 46.2845 26.4705 46.9375 28.1143 46.9375H28.8434C30.4872 46.9375 32.0637 46.2845 33.226 45.1222C34.3883 43.9599 35.0413 42.3834 35.0413 40.7396C35.0413 39.0958 35.6943 37.5194 36.8567 36.357C38.019 35.1947 39.5955 34.5417 41.2393 34.5417C42.883 34.5417 44.4595 33.8887 45.6218 32.7264C46.7842 31.564 47.4372 29.9876 47.4372 28.3438V27.6146C47.4372 25.9708 46.7842 24.3944 45.6218 23.232C44.4595 22.0697 42.883 21.4167 41.2393 21.4167Z" stroke="black" stroke-width="1.45833" stroke-linecap="round" stroke-linejoin="round"/>
<path d="M42.1437 32.3614C40.9816 31.1991 40.3287 29.6228 40.3287 27.9791C40.3287 26.3355 40.9816 24.7592 42.1437 23.5968C43.3059 22.4345 43.9587 20.8582 43.9587 19.2145C43.9587 17.5709 43.3059 15.9946 42.1437 14.8323L41.6275 14.316C40.4652 13.1539 38.8888 12.501 37.2452 12.501C35.6015 12.501 34.0252 13.1539 32.8629 14.316C32.2873 14.8917 31.604 15.3483 30.852 15.6599C30.0999 15.9714 29.2939 16.1318 28.4799 16.1318C27.6658 16.1318 26.8598 15.9714 26.1077 15.6599C25.3557 15.3483 24.6724 14.8917 24.0968 14.316C22.9345 13.1539 21.3582 12.501 19.7145 12.501C18.0709 12.501 16.4946 13.1539 15.3323 14.316L14.816 14.8308C13.6539 15.9931 13.001 17.5694 13.001 19.2131C13.001 20.8567 13.6539 22.4331 14.816 23.5954C15.3917 24.1709 15.8483 24.8542 16.1599 25.6063C16.4714 26.3583 16.6318 27.1644 16.6318 27.9784C16.6318 28.7924 16.4714 29.5985 16.1599 30.3505C15.8483 31.1026 15.3917 31.7859 14.816 32.3614C13.6539 33.5237 13.001 35.1001 13.001 36.7437C13.001 38.3874 13.6539 39.9637 14.816 41.126L15.3308 41.6423C16.4931 42.8044 18.0694 43.4573 19.7131 43.4573C21.3567 43.4573 22.9331 42.8044 24.0954 41.6423C24.6709 41.0666 25.3542 40.61 26.1063 40.2984C26.8583 39.9868 27.6644 39.8265 28.4784 39.8265C29.2924 39.8265 30.0985 39.9868 30.8505 40.2984C31.6026 40.61 32.2859 41.0666 32.8614 41.6423C34.0237 42.8044 35.6001 43.4573 37.2437 43.4573C38.8874 43.4573 40.4637 42.8044 41.626 41.6423L42.1423 41.1275C43.3044 39.9652 43.9573 38.3888 43.9573 36.7452C43.9573 35.1015 43.3044 33.5252 42.1423 32.3629" stroke="black" stroke-width="1.45833" stroke-linecap="round" stroke-linejoin="round"/>
</svg>
