<svg xmlns="http://www.w3.org/2000/svg" xmlns:xlink="http://www.w3.org/1999/xlink" viewBox="0 0 500.05 500.19"><defs><style>.cls-1,.cls-10,.cls-11,.cls-16,.cls-22,.cls-27,.cls-30,.cls-31,.cls-32,.cls-34,.cls-35,.cls-39,.cls-40,.cls-47,.cls-5,.cls-50,.cls-7,.cls-8{fill:none;}.cls-2{isolation:isolate;}.cls-3{fill:#fff6e7;}.cls-4{fill:#d3bfa5;}.cls-5{stroke:#af977b;}.cls-10,.cls-11,.cls-16,.cls-22,.cls-27,.cls-30,.cls-31,.cls-32,.cls-34,.cls-35,.cls-39,.cls-40,.cls-47,.cls-5,.cls-50,.cls-7,.cls-8{stroke-miterlimit:10;}.cls-6{fill:#b29b7f;}.cls-22,.cls-7{stroke:#fff6e7;}.cls-8{stroke:#d6c7b4;}.cls-9{fill:#eddfca;}.cls-10,.cls-11,.cls-34,.cls-35{stroke:#eddfca;}.cls-10{stroke-width:0.65px;}.cls-11{stroke-width:0.64px;}.cls-12{fill:#440707;}.cls-13{fill:#260404;}.cls-14{fill:#af5231;}.cls-15{fill:#863627;opacity:0.21;}.cls-15,.cls-42{mix-blend-mode:multiply;}.cls-16{stroke:#72130a;}.cls-17,.cls-28{fill:#efeee4;}.cls-17{mix-blend-mode:overlay;opacity:0.14;}.cls-18{fill:#ffa506;}.cls-19{clip-path:url(#clip-path);}.cls-20{fill:#d66562;}.cls-21{fill:#591f12;}.cls-22{stroke-width:2px;}.cls-23{fill:#9b9889;}.cls-24,.cls-33{fill:#7c796b;}.cls-25{fill:#c97d05;}.cls-26{fill:#933c21;}.cls-27{stroke:#ffa506;stroke-width:1.15px;}.cls-29{fill:#381612;}.cls-30{stroke:#381612;stroke-width:2.13px;}.cls-30,.cls-31,.cls-39,.cls-40{stroke-linecap:round;}.cls-31{stroke:#541c14;stroke-width:0.86px;}.cls-32{stroke:#fcd59d;}.cls-33{opacity:0.44;}.cls-34{stroke-width:0.79px;}.cls-35{stroke-width:0.88px;}.cls-36{fill:#c44d18;}.cls-37{fill:#9e3a13;}.cls-38{fill:#7dbb77;}.cls-39,.cls-40{stroke:#21442f;}.cls-39{stroke-width:1.01px;}.cls-40{stroke-width:0.85px;}.cls-41{fill:#599172;}.cls-42{fill:#394c77;opacity:0.45;}.cls-43{fill:#417556;}.cls-44{fill:#133f1a;}.cls-45{fill:#ffcb57;}.cls-46{fill:#893a3a;opacity:0.4;}.cls-47{stroke:#721c1f;stroke-width:1.58px;}.cls-48{fill:#72130a;}.cls-49{fill:#490906;}.cls-50{stroke:#4f4c3f;}.cls-51{fill:#51788e;}.cls-52{fill:#6fb590;}.cls-53{fill:#365866;}</style><clipPath id="clip-path"><path class="cls-1" d="M295,315.65c8.8-14.09,3.08-34.35,3.08-34.35-11.61-23.42-9.74-58-8.51-71-16.73,3.77-31.25,13.28-31.25,13.28l-7.09,7-7.09-7s-14.53-9.51-31.26-13.28c1.24,13,3.11,47.55-8.5,71,0,0-5.73,20.26,3.08,34.35-10.13,57.25-10.13,63.85-10.13,63.85h107.8S305.15,372.9,295,315.65Z"/></clipPath></defs><g class="cls-2"><g id="Layer_2" data-name="Layer 2"><g id="BACKGROUND"><rect class="cls-3" x="0.04" y="0.13" width="500" height="500"/></g><g id="OBJECTS"><path class="cls-4" d="M47.74,179.2c1.13-26.58,8.69-52.27,25.49-75.92,63.18-88.94,221.55-86.69,309.19-36.61,26.31,15,48.95,38.09,58,66.6,7.33,23,5.44,47.7,5.31,71.79-.15,27.16,5.66,47.31,16.81,71.68,8.92,19.51,10.8,42.7,7.19,63.55-7.84,45.25-41.55,81.86-82,102.63-64.3,33-166.31,33.41-244.74,14.39-39.64-9.61-77.5-29.05-96.75-56.42-15.32-21.76-17.69-46.66-12.8-69.59,3.93-18.44,13.23-34.91,21-52.29,6.23-13.94,3.6-26-.13-41.2C49.47,218.11,46.92,198.42,47.74,179.2Z"/><rect class="cls-3" x="342.01" y="196.65" width="71.35" height="98.34"/><rect class="cls-4" x="348.51" y="207.74" width="58.42" height="2.54"/><rect class="cls-4" x="348.51" y="213.14" width="58.42" height="2.54"/><rect class="cls-4" x="348.51" y="218.54" width="58.42" height="2.54"/><rect class="cls-4" x="348.51" y="223.93" width="58.42" height="2.54"/><rect class="cls-4" x="348.51" y="229.33" width="58.42" height="2.54"/><rect class="cls-4" x="348.51" y="234.73" width="58.42" height="2.54"/><rect class="cls-4" x="348.51" y="240.12" width="58.42" height="2.54"/><rect class="cls-4" x="348.51" y="256.32" width="58.42" height="2.54"/><rect class="cls-4" x="348.51" y="261.71" width="58.42" height="2.54"/><rect class="cls-4" x="348.51" y="267.11" width="58.42" height="2.54"/><rect class="cls-4" x="348.51" y="272.51" width="58.42" height="2.54"/><rect class="cls-4" x="348.51" y="277.9" width="58.42" height="2.54"/><rect class="cls-4" x="348.51" y="283.3" width="58.42" height="2.54"/><polyline class="cls-5" points="342 196.65 342 294.92 413.36 294.92"/><rect class="cls-3" x="277" y="51.8" width="96.11" height="132.46"/><rect class="cls-4" x="285.76" y="66.74" width="78.69" height="3.42"/><rect class="cls-4" x="285.76" y="74.01" width="78.69" height="3.42"/><rect class="cls-4" x="285.76" y="81.28" width="78.69" height="3.42"/><rect class="cls-4" x="285.76" y="88.55" width="78.69" height="3.42"/><rect class="cls-4" x="285.76" y="95.82" width="78.69" height="3.42"/><rect class="cls-4" x="285.76" y="103.09" width="78.69" height="3.42"/><rect class="cls-4" x="285.76" y="110.36" width="78.69" height="3.42"/><rect class="cls-4" x="285.76" y="117.63" width="78.69" height="3.42"/><rect class="cls-4" x="285.76" y="124.9" width="78.69" height="3.42"/><rect class="cls-4" x="285.76" y="132.17" width="78.69" height="3.42"/><rect class="cls-4" x="285.76" y="139.44" width="78.69" height="3.42"/><rect class="cls-4" x="285.76" y="146.71" width="78.69" height="3.42"/><rect class="cls-4" x="285.76" y="153.98" width="78.69" height="3.42"/><rect class="cls-4" x="285.76" y="161.25" width="78.69" height="3.42"/><rect class="cls-4" x="285.76" y="168.52" width="78.69" height="3.42"/><rect class="cls-3" x="329.61" y="80.47" width="37.43" height="49.57"/><rect class="cls-6" x="334.45" y="82.73" width="29.06" height="43.88"/><line class="cls-7" x1="334.45" y1="82.73" x2="363.52" y2="126.61"/><line class="cls-7" x1="363.52" y1="82.73" x2="334.45" y2="126.61"/><polyline class="cls-5" points="373.11 184.26 277 184.26 277 51.8"/><rect class="cls-3" x="81.04" y="61.66" width="121.65" height="167.67"/><rect class="cls-4" x="123.53" y="80.58" width="68.21" height="4.33"/><rect class="cls-4" x="123.53" y="89.78" width="68.21" height="4.33"/><rect class="cls-4" x="123.53" y="98.99" width="68.21" height="4.33"/><rect class="cls-4" x="123.53" y="108.19" width="68.21" height="4.33"/><rect class="cls-4" x="92.13" y="117.39" width="99.6" height="4.33"/><rect class="cls-4" x="92.13" y="126.59" width="99.6" height="4.33"/><rect class="cls-4" x="92.13" y="135.79" width="99.6" height="4.33"/><rect class="cls-4" x="92.13" y="145" width="99.6" height="4.33"/><rect class="cls-4" x="92.13" y="154.2" width="99.6" height="4.33"/><rect class="cls-4" x="92.13" y="163.4" width="99.6" height="4.33"/><rect class="cls-4" x="92.13" y="172.6" width="99.6" height="4.33"/><rect class="cls-4" x="92.13" y="181.81" width="99.6" height="4.33"/><rect class="cls-4" x="92.13" y="191.01" width="99.6" height="4.33"/><rect class="cls-4" x="92.13" y="200.21" width="99.6" height="4.33"/><rect class="cls-4" x="92.13" y="209.41" width="99.6" height="4.33"/><path class="cls-6" d="M99.69,102.35l-3.54,10.71H91.6L103.18,79h5.3l11.63,34.07h-4.7l-3.64-10.71Zm11.17-3.44-3.33-9.81c-.77-2.22-1.27-4.24-1.77-6.21h-.11c-.5,2-1.06,4.09-1.71,6.16l-3.34,9.86Z"/><polyline class="cls-5" points="81.04 61.66 81.04 229.33 202.7 229.33"/><rect class="cls-3" x="320.53" y="328.96" width="126.83" height="2.97"/><rect class="cls-3" x="316.53" y="331.93" width="126.83" height="2.97"/><rect class="cls-3" x="320.53" y="334.91" width="126.83" height="2.97"/><rect class="cls-3" x="323.53" y="337.88" width="126.83" height="2.97"/><rect class="cls-3" x="320.53" y="340.85" width="126.83" height="2.97"/><rect class="cls-3" x="319.53" y="343.82" width="126.83" height="2.97"/><rect class="cls-3" x="320.53" y="346.8" width="126.83" height="2.97"/><rect class="cls-3" x="321.53" y="349.77" width="126.83" height="2.97"/><rect class="cls-3" x="320.53" y="352.74" width="126.83" height="2.97"/><rect class="cls-3" x="318.53" y="355.71" width="126.83" height="2.97"/><rect class="cls-3" x="319.53" y="358.69" width="126.83" height="2.97"/><rect class="cls-3" x="320.53" y="361.66" width="126.83" height="2.97"/><rect class="cls-3" x="320.53" y="364.63" width="126.83" height="2.97"/><rect class="cls-3" x="319.53" y="367.6" width="126.83" height="2.97"/><rect class="cls-3" x="320.53" y="370.58" width="126.83" height="2.97"/><rect class="cls-3" x="320.53" y="373.55" width="126.83" height="2.97"/><line class="cls-8" x1="440.75" y1="331.93" x2="354.21" y2="331.93"/><line class="cls-8" x1="420.27" y1="337.88" x2="333.74" y2="337.88"/><line class="cls-8" x1="445.35" y1="352.74" x2="358.82" y2="352.74"/><line class="cls-8" x1="417.28" y1="360.17" x2="330.75" y2="360.17"/><line class="cls-8" x1="443.37" y1="370.58" x2="356.84" y2="370.58"/><path class="cls-9" d="M499.92,363.36s-29.26-5.3-23.56,52.14-23.13,65.37-50.91,61.15-35,10.48-36.57,23.48h111Z"/><path class="cls-10" d="M499.92,355.88s-30.83-5.6-24.83,55-24.36,68.95-53.62,64.5-36.92,11-38.53,24.76"/><path class="cls-9" d="M0,391.81s35.47-4.2,28.57,41.29,28,51.78,61.71,48.43,42.49,8.3,44.35,18.6H0Z"/><path class="cls-11" d="M0,385.89s37.37-4.43,30.09,43.55,29.54,54.6,65,51.08,44.76,8.75,46.72,19.61"/><path class="cls-12" d="M192.79,174.32a2.51,2.51,0,1,0,2.27,4.48l0,0,0,.05,0,0a2.51,2.51,0,0,0,2.61,4.29l0,0,0,0,0,0a2.51,2.51,0,0,0,2.94,4.07l0,0,0,.05,0,0a2.51,2.51,0,0,0,3.26,3.82l0,0,0,0,0,0a2.51,2.51,0,1,0,3.55,3.55l0,0,0,0,0,0a2.51,2.51,0,1,0,3.81,3.26s0,0,0,0l0,0,0,0a2.51,2.51,0,1,0,4.06,3l0,0,.05,0,0,0a2.51,2.51,0,1,0,4.28,2.62l0,0,.05,0s0,0,0,0a2.51,2.51,0,0,0,4.48,2.28s0,0,0,0l.06,0,0,0a2.51,2.51,0,0,0,4.64,1.92v0l.06,0v0a2.51,2.51,0,1,0,4.77,1.54,0,0,0,0,0,0,0l.06,0v0a2.51,2.51,0,0,0,4.88,1.16s0,0,0,0h.06s0,0,0,0a2.51,2.51,0,0,0,5,.78.09.09,0,0,1,0,0h.05v0a2.51,2.51,0,1,0,5,.38s0,0,0-.05H249v.06a2.52,2.52,0,0,0,2.52,2.5,2.47,2.47,0,0,0,1.74-.71,2.51,2.51,0,0,0,4.15-2s0,0,0-.05h.06v.05a2.51,2.51,0,0,0,5-.68v0h.06a.06.06,0,0,0,0,0,2.51,2.51,0,0,0,4.9-1.06.08.08,0,0,0,0,0h.06s0,0,0,0a2.51,2.51,0,1,0,4.81-1.44,0,0,0,0,1,0,0l.05,0v0a2.51,2.51,0,1,0,4.68-1.82s0,0,0,0l0,0s0,0,0,0a2.51,2.51,0,1,0,4.52-2.19s0,0,0,0l.06,0s0,0,0,0a2.51,2.51,0,0,0,4.34-2.54l0,0,.05,0,0,0a2.51,2.51,0,1,0,4.12-2.86l0,0,.05,0,0,0a2.51,2.51,0,0,0,3.88-3.18l0,0,.05,0,0,0a2.51,2.51,0,0,0,3.62-3.48l0,0,.05-.05,0,0a2.51,2.51,0,1,0,3.34-3.75l0,0,0,0,0,0a2.51,2.51,0,1,0,3-4l0,0,0-.05,0,0a2.51,2.51,0,0,0,2.7-4.23l0,0,0-.05,0,0a2.51,2.51,0,1,0,2.36-4.43h0l0-.06,0,0a2.51,2.51,0,1,0,2-4.6h0l0-.06h0a2.51,2.51,0,1,0,1.64-4.74h0V166h0a2.51,2.51,0,1,0,1.26-4.86h0v0h0a2.51,2.51,0,0,0,.87-5h0v-.06h.05a2.51,2.51,0,1,0,.48-5h-.05V151h.05a2.51,2.51,0,0,0,.09-5h-.06V146h.05a2.51,2.51,0,1,0-.31-5h0v-.06h.05a2.51,2.51,0,0,0-.71-5h0v-.06h0a2.51,2.51,0,0,0-1.09-4.9h0v-.06h0a2.51,2.51,0,0,0-1.48-4.8h0l0,0h0a2.51,2.51,0,0,0-1.85-4.67l0,0,0-.06h0a2.51,2.51,0,1,0-2.21-4.51l0,0,0,0,0,0a2.51,2.51,0,0,0-2.56-4.32l0,0,0,0,0,0a2.51,2.51,0,0,0-2.9-4.1l0,0,0,0s0,0,0,0a2.51,2.51,0,1,0-3.21-3.87l0,0,0-.05,0,0a2.51,2.51,0,1,0-3.5-3.6l0,0,0,0a.08.08,0,0,0,0,0,2.51,2.51,0,0,0-3.78-3.31l0,0,0,0,0,0a2.52,2.52,0,1,0-4-3,.05.05,0,0,1,0,0l0,0,0,0a2.51,2.51,0,0,0-4.25-2.68s0,0,0,0l-.05,0,0,0A2.51,2.51,0,0,0,279,89.29v0l-.05,0s0,0,0,0a2.51,2.51,0,1,0-4.61-2l0,0-.05,0s0,0,0,0a2.51,2.51,0,1,0-4.75-1.61.08.08,0,0,0,0,0l-.06,0s0,0,0,0a2.51,2.51,0,1,0-4.87-1.23.06.06,0,0,1,0,0h0a.06.06,0,0,1,0,0,2.51,2.51,0,1,0-4.95-.84.06.06,0,0,0,0,0h-.06s0,0,0,0a2.51,2.51,0,1,0-5-.44v0h-.06v0a2.51,2.51,0,0,0-5,0v0h-.06v0a2.51,2.51,0,0,0-5,.35s0,0,0,0h-.06v0a2.51,2.51,0,0,0-5,.74s0,0,0,0h-.06a.08.08,0,0,0,0,0,2.51,2.51,0,0,0-4.89,1.13s0,0,0,0h-.05a0,0,0,0,1,0,0,2.51,2.51,0,0,0-4.79,1.5s0,0,0,0l-.05,0s0,0,0,0a2.51,2.51,0,1,0-4.65,1.89v0l0,0v0a2.51,2.51,0,0,0-4.5,2.24.05.05,0,0,1,0,0l-.05,0s0,0,0,0A2.51,2.51,0,1,0,216,93.6l0,0-.05,0,0,0a2.51,2.51,0,0,0-4.08,2.92l0,0-.05,0s0,0,0,0A2.51,2.51,0,1,0,208,99.82l0,0-.05,0,0,0a2.51,2.51,0,1,0-3.57,3.52l0,0,0,0,0,0a2.51,2.51,0,1,0-3.29,3.79l0,0,0,0,0,0a2.51,2.51,0,1,0-3,4l0,0,0,0,0,0a2.51,2.51,0,1,0-2.65,4.26l0,0,0,0,0,0a2.51,2.51,0,0,0-2.31,4.46l0,0,0,0h0a2.51,2.51,0,1,0-2,4.62l0,0,0,0h0a2.51,2.51,0,1,0-1.57,4.77h0v.06h0a2.51,2.51,0,0,0-1.19,4.88h0v.06h0a2.51,2.51,0,0,0-.81,5h0v.06h-.05a2.51,2.51,0,1,0-.41,5H187v.06H187a2.51,2.51,0,1,0,0,5H187v.05H187a2.51,2.51,0,0,0,.38,5h0v.05h0a2.51,2.51,0,1,0,.78,5h0v.06h0a2.51,2.51,0,1,0,1.16,4.88h0l0,.06h0a2.51,2.51,0,0,0,1.54,4.78l0,0,0,.06h0a2.51,2.51,0,0,0,1.91,4.64h0l0,.05h0"/><path class="cls-13" d="M315.31,131.2a2.46,2.46,0,0,1-1.74.69h-.05v.06h.05a2.44,2.44,0,0,1,2.19,2.66,2.31,2.31,0,0,1-.28.91,2.5,2.5,0,0,0-.17-4.31Z"/><path class="cls-13" d="M315.16,127.59a2.48,2.48,0,0,0-.57-.87,2.42,2.42,0,0,1-.94.25h0v0h.06A2.42,2.42,0,0,1,315.16,127.59Z"/><path class="cls-13" d="M188.11,125.89a2.57,2.57,0,0,1,.79-.14h0v0h-.05a2.63,2.63,0,0,1-.57-.13A2.35,2.35,0,0,0,188.11,125.89Z"/><path class="cls-13" d="M186.65,133.28a2.42,2.42,0,0,1,2.24-2.61h.05v-.06h-.05a2.46,2.46,0,0,1-1.52-.55,2.51,2.51,0,0,0-.69,3.39A1.13,1.13,0,0,1,186.65,133.28Z"/><path class="cls-13" d="M315.62,151.09h-.05V151h.05a2.51,2.51,0,0,0,.09-5h-.06V146h.05a2.51,2.51,0,1,0-.31-5h0v-.06h.05a2.51,2.51,0,0,0-.16-5,2.44,2.44,0,0,1-2.12.89h-.05v.06h.05a2.43,2.43,0,1,1-.85,4.79h0l0,.06h0A2.43,2.43,0,1,1,311,146.4h0l0,.05h0a2.43,2.43,0,0,1-1.59,4.6h0l0,.05h0a2.43,2.43,0,0,1-1.94,4.46h0l0,0h0a2.44,2.44,0,0,1-2.29,4.3l0,0,0,.05,0,0a2.43,2.43,0,1,1-2.62,4.1l0,0,0,0,0,0a2.43,2.43,0,0,1-2.93,3.88l0,0,0,0,0,0a2.43,2.43,0,0,1-3.23,3.64l0,0,0,0,0,0a2.43,2.43,0,0,1-3.51,3.37l0,0,0,0,0,0a2.43,2.43,0,0,1-3.76,3.08l0,0,0,0,0,0a2.43,2.43,0,1,1-4,2.78l0,0-.05,0,0,0a2.43,2.43,0,1,1-4.2,2.46l0,0-.05,0,0,0a2.43,2.43,0,1,1-4.38,2.12s0,0,0,0l-.05,0s0,0,0,0a2.43,2.43,0,1,1-4.53,1.76v0l-.06,0v0a2.43,2.43,0,1,1-4.66,1.4v0h-.06s0,0,0,0a2.44,2.44,0,0,1-4.76,1v0H262s0,0,0,0a2.43,2.43,0,0,1-4.82.65.09.09,0,0,0,0,0h-.05v0a2.43,2.43,0,0,1-4,2,2.43,2.43,0,0,1-4.12-1.74v-.05H249v.05a2.43,2.43,0,1,1-4.85-.37v0h-.06v0a2.43,2.43,0,0,1-4.81-.76,0,0,0,0,1,0,0h-.06a0,0,0,0,1,0,0,2.43,2.43,0,1,1-4.73-1.12v0l-.05,0v0a2.43,2.43,0,1,1-4.63-1.49v0l-.05,0v0a2.43,2.43,0,1,1-4.5-1.86v0l0,0s0,0,0,0a2.44,2.44,0,0,1-4.34-2.21l0,0,0,0s0,0,0,0a2.43,2.43,0,0,1-4.15-2.54l0,0,0,0a.05.05,0,0,0,0,0,2.43,2.43,0,0,1-3.94-2.86l0,0-.05,0s0,0,0,0a2.43,2.43,0,1,1-3.69-3.16l0,0,0,0,0,0a2.43,2.43,0,1,1-3.43-3.44l0,0,0,0,0,0a2.43,2.43,0,0,1-3.16-3.7l0,0,0,0,0,0a2.43,2.43,0,0,1-2.86-3.94l0,0,0,0,0,0a2.43,2.43,0,0,1-2.54-4.15l0,0,0-.05,0,0a2.44,2.44,0,0,1-2.21-4.34h0l0,0h0a2.43,2.43,0,0,1-1.85-4.5h0l0-.05h0a2.43,2.43,0,1,1-1.49-4.63h0v-.05h0a2.44,2.44,0,1,1-1.12-4.74h0v-.05h0a2.43,2.43,0,1,1-.75-4.81h.05v0h-.05a2.39,2.39,0,0,1-2-.86,2.51,2.51,0,0,0,.18,4.92h0v.06h-.05a2.51,2.51,0,1,0-.41,5H187v.06H187a2.51,2.51,0,1,0,0,5H187v.05H187a2.51,2.51,0,0,0,.38,5h0v.05h0a2.51,2.51,0,1,0,.78,5h0v.06h0a2.51,2.51,0,1,0,1.16,4.88h0l0,.06h0a2.51,2.51,0,0,0,1.54,4.78l0,0,0,.06h0a2.51,2.51,0,0,0,1.91,4.64h0l0,.05h0a2.51,2.51,0,1,0,2.27,4.48l0,0,0,.05,0,0a2.51,2.51,0,0,0,2.61,4.29l0,0,0,0,0,0a2.51,2.51,0,0,0,2.94,4.07l0,0,0,.05,0,0a2.51,2.51,0,0,0,3.26,3.82l0,0,0,0,0,0a2.51,2.51,0,1,0,3.55,3.55l0,0,0,0,0,0a2.51,2.51,0,1,0,3.81,3.26s0,0,0,0l0,0,0,0a2.51,2.51,0,1,0,4.06,3l0,0,.05,0,0,0a2.51,2.51,0,1,0,4.28,2.62l0,0,.05,0s0,0,0,0a2.51,2.51,0,0,0,4.48,2.28s0,0,0,0l.06,0,0,0a2.51,2.51,0,0,0,4.64,1.92v0l.06,0v0a2.51,2.51,0,1,0,4.77,1.54,0,0,0,0,0,0,0l.06,0v0a2.51,2.51,0,0,0,4.88,1.16s0,0,0,0h.06s0,0,0,0a2.51,2.51,0,0,0,5,.78.09.09,0,0,1,0,0h.05v0a2.51,2.51,0,1,0,5,.38s0,0,0-.05H249v.06a2.52,2.52,0,0,0,2.52,2.5,2.47,2.47,0,0,0,1.74-.71,2.51,2.51,0,0,0,4.15-2s0,0,0-.05h.06v.05a2.51,2.51,0,0,0,5-.68v0h.06a.06.06,0,0,0,0,0,2.51,2.51,0,0,0,4.9-1.06.08.08,0,0,0,0,0h.06s0,0,0,0a2.51,2.51,0,1,0,4.81-1.44,0,0,0,0,1,0,0l.05,0v0a2.51,2.51,0,1,0,4.68-1.82s0,0,0,0l0,0s0,0,0,0a2.51,2.51,0,1,0,4.52-2.19s0,0,0,0l.06,0s0,0,0,0a2.51,2.51,0,0,0,4.34-2.54l0,0,.05,0,0,0a2.51,2.51,0,1,0,4.12-2.86l0,0,.05,0,0,0a2.51,2.51,0,0,0,3.88-3.18l0,0,.05,0,0,0a2.51,2.51,0,0,0,3.62-3.48l0,0,.05-.05,0,0a2.51,2.51,0,1,0,3.34-3.75l0,0,0,0,0,0a2.51,2.51,0,1,0,3-4l0,0,0-.05,0,0a2.51,2.51,0,0,0,2.7-4.23l0,0,0-.05,0,0a2.51,2.51,0,1,0,2.36-4.43h0l0-.06,0,0a2.51,2.51,0,1,0,2-4.6h0l0-.06h0a2.51,2.51,0,1,0,1.64-4.74h0V166h0a2.51,2.51,0,1,0,1.26-4.86h0v0h0a2.51,2.51,0,0,0,.87-5h0v-.06h.05a2.51,2.51,0,1,0,.48-5Z"/><path class="cls-14" d="M258.34,223.62s32.71-21.47,56.49-12.72c17.15,6.31,43.22,91.16,56.43,138C375.59,364.27,368,376.7,352,376.7H339.42L305.15,265.47l-7,15.83s5.72,20.26-3.08,34.35c10.13,57.25,10.13,63.85,10.13,63.85h-53.9V230.66Z"/><path class="cls-15" d="M371.26,348.92q-.93-3.3-1.95-6.86c-5.37,3.23-22.62,15.52-16.45,37A24.05,24.05,0,0,0,371.26,348.92Z"/><path class="cls-14" d="M344.34,379.5H219.62s-6.51-17.61,33.56-22.45,81.47-12.33,81.47-12.33S353.59,359.69,344.34,379.5Z"/><line class="cls-16" x1="324.12" y1="346.55" x2="348.3" y2="342.06"/><line class="cls-16" x1="305.15" y1="265.47" x2="300.96" y2="255.73"/><path class="cls-17" d="M314.83,210.9c-.81-.3-1.63-.55-2.46-.78-2.7,4.74-4.69,13.19-.66,27.59,7.53,26.86,68.4,114.92,52.72,135.41a24,24,0,0,0,6.83-24.2C358.05,302.06,332,217.21,314.83,210.9Z"/><path class="cls-14" d="M244.16,223.62s-32.72-21.47-56.5-12.72c-17.14,6.31-43.21,91.16-56.43,138-4.33,15.35,3.28,27.78,19.23,27.78h12.61l34.28-111.23,7.05,15.83s-5.73,20.26,3.08,34.35c-10.13,57.25-10.13,63.85-10.13,63.85h53.9V230.66Z"/><path class="cls-15" d="M131.23,348.92q.93-3.3,2-6.86c5.37,3.23,22.62,15.52,16.46,37A24.07,24.07,0,0,1,131.23,348.92Z"/><path class="cls-14" d="M158.16,379.5H282.88s6.51-17.61-33.57-22.45-81.46-12.33-81.46-12.33S148.91,359.69,158.16,379.5Z"/><line class="cls-16" x1="178.37" y1="346.55" x2="154.19" y2="342.06"/><line class="cls-16" x1="197.35" y1="265.47" x2="201.53" y2="255.73"/><path class="cls-15" d="M187.66,210.9c.81-.3,1.63-.55,2.46-.78,2.71,4.74,4.69,13.19.66,27.59-7.52,26.86-68.4,114.92-52.72,135.41a24,24,0,0,1-6.83-24.2C144.45,302.06,170.52,217.21,187.66,210.9Z"/><path class="cls-18" d="M295,315.65c8.8-14.09,3.08-34.35,3.08-34.35-11.61-23.42-9.74-58-8.51-71-16.73,3.77-31.25,13.28-31.25,13.28l-7.09,7-7.09-7s-14.53-9.51-31.26-13.28c1.24,13,3.11,47.55-8.5,71,0,0-5.73,20.26,3.08,34.35-10.13,57.25-10.13,63.85-10.13,63.85h107.8S305.15,372.9,295,315.65Z"/><circle class="cls-3" cx="231.32" cy="239.96" r="13.24" transform="translate(-55.13 410.34) rotate(-76.79)"/><g class="cls-19"><rect class="cls-20" x="163.79" y="299.81" width="170.86" height="8.61"/><rect class="cls-20" x="163.79" y="325.58" width="170.86" height="8.61"/></g><path class="cls-14" d="M226.27,214.55a111.83,111.83,0,0,1,17.89,9.06l7.09,7v20.26C227.11,250.92,226,223.29,226.27,214.55Z"/><path class="cls-14" d="M276.23,214.55a111.83,111.83,0,0,0-17.89,9.06l-7.09,7v20.26C275.38,250.92,276.48,223.29,276.23,214.55Z"/><path class="cls-14" d="M263.75,201.38l-12.44,1.32-12.44-1.32-2.59,33s2.81,11.45,15,11.45,15-11.45,15-11.45Z"/><path class="cls-21" d="M264.15,206.46l-.4-5.08-12.44,1.32-12.44-1.32-1.66,21.11C251.3,218.48,261.75,213.46,264.15,206.46Z"/><circle class="cls-3" cx="276.32" cy="283.83" r="13.24" transform="translate(-87.06 126.14) rotate(-22.31)"/><path class="cls-22" d="M289.59,210.33s-4.26,51.6,8.51,71"/><path class="cls-22" d="M276.23,214.55s3,36.37-25,36.37-25-36.37-25-36.37"/><path class="cls-22" d="M212.9,210.33s5,44.91-8.5,71"/><polygon class="cls-23" points="251.25 294.92 161.02 294.92 184.8 373.12 251.25 373.12 317.7 373.12 341.48 294.92 251.25 294.92"/><polygon class="cls-3" points="336.14 289.23 251.25 289.23 166.36 289.23 161.02 294.92 251.25 294.92 341.48 294.92 336.14 289.23"/><ellipse class="cls-24" cx="254.07" cy="332.13" rx="24.18" ry="12.18"/><rect class="cls-24" x="184.57" y="372.37" width="133.46" height="6.33"/><circle class="cls-3" cx="228.96" cy="272.99" r="10.99" transform="translate(-125.97 241.86) rotate(-45)"/><path class="cls-3" d="M264.27,263.37a5.76,5.76,0,1,1-5.75-5.76A5.75,5.75,0,0,1,264.27,263.37Z"/><path class="cls-3" d="M287.2,241.36a5.76,5.76,0,1,1-5.76-5.76A5.76,5.76,0,0,1,287.2,241.36Z"/><path class="cls-18" d="M251.32,120.42c-47.24,0-35.18,45.19-35.18,45.19,20.51,3.8,35.18-14.43,35.18-14.43s14.66,18.23,35.17,14.43C286.49,165.61,298.55,120.42,251.32,120.42Z"/><path class="cls-25" d="M251.55,131.43c-9-1.14-14.52-3-11.3-6.83,1.65-1.95,7.57-3.3,12.93-4.15q-.92,0-1.86,0c-47.24,0-35.18,45.19-35.18,45.19a30.81,30.81,0,0,0,8.34.39l29.26-22.72S260.57,132.57,251.55,131.43Z"/><path class="cls-26" d="M296,177.86c-3.44,6.48-9.83,9.83-14.28,7.47s-5.26-9.53-1.82-16,9.83-9.83,14.28-7.48S299.41,171.37,296,177.86Z"/><path class="cls-14" d="M296,177.86c3-5.64,2.76-11.8-.28-14.86-3.39.86-6.88,3.73-9.12,7.95-3,5.65-2.76,11.8.28,14.86C290.24,185,293.73,182.08,296,177.86Z"/><path class="cls-27" d="M276.36,183.57a9.79,9.79,0,1,0,9.21-2.6"/><path class="cls-26" d="M206.66,177.86c3.44,6.48,9.83,9.83,14.28,7.47s5.26-9.53,1.82-16-9.83-9.83-14.28-7.48S203.22,171.37,206.66,177.86Z"/><path class="cls-14" d="M206.66,177.86c-3-5.64-2.76-11.8.28-14.86,3.39.86,6.88,3.73,9.12,7.95,3,5.65,2.76,11.8-.28,14.86C212.39,185,208.9,182.08,206.66,177.86Z"/><path class="cls-27" d="M217.06,181a9.78,9.78,0,1,0,9.21,2.6"/><path class="cls-14" d="M251.31,134.85c-40.8-2.27-35.5,27.73-27.52,52.23,7.67,23.54,26,26.2,27.47,26.37h.1c1.43-.17,19.8-2.83,27.47-26.37C286.82,162.58,292.11,132.58,251.31,134.85Z"/><ellipse class="cls-28" cx="267.57" cy="173.92" rx="9.49" ry="4.73" transform="translate(-21.4 38.51) rotate(-7.92)"/><path class="cls-29" d="M269.53,169.05a18.19,18.19,0,0,0-2.61.18,16.8,16.8,0,0,0-2.58.55,7.11,7.11,0,0,0-3.61,6.19A7,7,0,0,0,261,178,16.58,16.58,0,0,0,275,176.09V176A7.12,7.12,0,0,0,269.53,169.05Z"/><path class="cls-28" d="M251.31,197a22.71,22.71,0,0,1-4.93-.55,1.11,1.11,0,0,0-.89,2,10.19,10.19,0,0,0,11.65,0,1.11,1.11,0,0,0-.89-2A22.73,22.73,0,0,1,251.31,197Z"/><path class="cls-30" d="M258.16,175.23c-.36-2.59,3.56-5.28,8.76-6s9.69.79,10.05,3.38"/><path class="cls-26" d="M254.53,191.4s-6.5,3.28-9.07,1,0-9-.34-11.87-1-7.21-2.16-8.4c2.84.73,4.28,7.63,3.52,12.38S246.32,193.59,254.53,191.4Z"/><path class="cls-31" d="M245.12,173.92s2.45,7,1,12.51,6.08,6.85,8.4,5"/><path class="cls-28" d="M225.66,172.61c-.36,2.59,3.56,5.27,8.75,6s9.7-.79,10.06-3.38-3.56-5.28-8.76-6S226,170,225.66,172.61Z"/><path class="cls-29" d="M233.1,169.05a18.19,18.19,0,0,1,2.61.18,16.8,16.8,0,0,1,2.58.55A7.11,7.11,0,0,1,241.9,176a7,7,0,0,1-.31,2.06,16.58,16.58,0,0,1-13.93-1.94V176A7.12,7.12,0,0,1,233.1,169.05Z"/><path class="cls-30" d="M244.47,175.23c.36-2.59-3.56-5.28-8.76-6s-9.69.79-10.05,3.38"/><path class="cls-29" d="M258.14,161.81s11.55-6.35,22.56,1.19C278.8,156.5,265,149.66,258.14,161.81Z"/><path class="cls-29" d="M244.49,161.81s-11.55-6.35-22.56,1.19C223.83,156.5,237.66,149.66,244.49,161.81Z"/><path class="cls-17" d="M278.83,187.08c8-24.5,13.28-54.5-27.52-52.23-8.94-.5-15.67.55-20.64,2.76-4.2,8.76-11.17,28.76-.59,50,9.7,19.52,20.6,23.52,28,23.86C264.48,208.76,273.88,202.27,278.83,187.08Z"/><path class="cls-32" d="M253.37,120.86s40.49-2.4,33.83,41.14"/><path class="cls-33" d="M317.92,372.37C209.35,375,187.64,310.38,184,294.91H161l23.78,78.21H317.7Z"/><circle class="cls-3" cx="231.43" cy="173.87" r="1.54"/><circle class="cls-3" cx="264.81" cy="173.87" r="1.54"/><path class="cls-9" d="M121.11.13S124,21.77,70.39,18.46s-56.54,28-36.54,101C52.39,187.48.1,191.9.1,191.9V.13Z"/><path class="cls-34" d="M126.75.13s3,22.83-53.08,19.33S14.49,49,35.43,126C54.83,197.72.1,202.38.1,202.38"/><path class="cls-9" d="M357.83.13s-12.17,39.09,45.64,35.79,88.9,23.66,82.78,78.88S499.89,162,499.89,162V.13Z"/><path class="cls-35" d="M350.11.13s-12.84,41.56,48.12,38.05S492,63.33,485.51,122s14.38,50.2,14.38,50.2"/><path class="cls-36" d="M459.46,394.86H43.15a9.09,9.09,0,0,1-9.08-9.08h0a9.08,9.08,0,0,1,9.08-9.08H459.46a9.08,9.08,0,0,1,9.08,9.08h0A9.09,9.09,0,0,1,459.46,394.86Z"/><path class="cls-37" d="M459.46,385.78H43.15a9.06,9.06,0,0,0-7.85,4.54,9.06,9.06,0,0,0,7.85,4.54H459.46a9.07,9.07,0,0,0,7.85-4.54A9.07,9.07,0,0,0,459.46,385.78Z"/><path class="cls-38" d="M62.56,239.6s-11.08-12.92-17.06-6.91S51.19,245.17,62.56,239.6Z"/><path class="cls-38" d="M77.08,273.24s-2-16.91-10.29-15.26S64.54,271.51,77.08,273.24Z"/><path class="cls-38" d="M75.72,235.43s-2-16.91-10.29-15.26S63.18,233.7,75.72,235.43Z"/><path class="cls-38" d="M93.85,284.33s14-9.7,8.63-16.26S89.48,272.44,93.85,284.33Z"/><path class="cls-39" d="M99.27,314.55s-17.34-8.95-13.4-37-22.71-37.67-28.54-39.4"/><path class="cls-39" d="M78.42,250.67s-.13-12.22-6.83-19.72"/><path class="cls-39" d="M85.87,277.53S75.94,275.76,71.5,267"/><path class="cls-39" d="M86.34,295.31s8.53-6.46,9.92-20.14"/><path class="cls-38" d="M129.73,250.16s9.35-10.91,14.4-5.84S139.33,254.85,129.73,250.16Z"/><path class="cls-38" d="M117.48,278.54s1.67-14.27,8.69-12.87S128.06,277.08,117.48,278.54Z"/><path class="cls-38" d="M118.62,246.64s1.67-14.27,8.69-12.88S129.21,245.18,118.62,246.64Z"/><path class="cls-38" d="M103.33,287.9s-11.81-8.18-7.28-13.72S107,277.87,103.33,287.9Z"/><path class="cls-40" d="M98.75,313.4s14.63-7.55,11.31-31.24,19.17-31.79,24.09-33.25"/><path class="cls-40" d="M116.35,259.5s.11-10.32,5.76-16.65"/><path class="cls-40" d="M110.06,282.16s8.38-1.49,12.13-8.87"/><path class="cls-40" d="M109.67,297.16s-7.21-5.44-8.38-17"/><path class="cls-41" d="M72.52,331.94S57,311.31,61.82,282.21c12.3,6.74,34.08,35.2,28.31,61.11Z"/><path class="cls-42" d="M70.48,289.11c3.07,29.84,20,51.65,20,51.65l.17-.21C93.54,320.88,81.53,300.27,70.48,289.11Z"/><path class="cls-43" d="M108.76,337.73s19.86-15.16,28.69-44.76.63-44.28,4.42-68.79c-20.18,34.14-43.63,90.69-43.58,118.24C101.5,344.1,108.76,337.73,108.76,337.73Z"/><path class="cls-42" d="M101.64,340.76c5.8-6.58,12.41-32.61,15.58-66.76-9.57,22.86-17,46.07-18.61,62.37C100.44,339.21,101.64,340.76,101.64,340.76Z"/><path class="cls-38" d="M96.46,340.76s-24.6-31.68-19.87-70.94,33.53-69.73,32.16-101.58C121.69,244,107.57,328.14,96.46,340.76Z"/><path class="cls-44" d="M95,335.2s13.69-79.23,10.34-107c-3.16,32.06-14.52,104.37-14.52,104.37Z"/><path class="cls-42" d="M72.52,331.94l17.61,11.38c.2-.92.36-1.84.5-2.77h0c.17-1.17.29-2.33.36-3.5,0-.11,0-.23,0-.34.06-1.19.08-2.37,0-3.56h0l0-.45.24.15a81.62,81.62,0,0,0,5.19,7.91,16.85,16.85,0,0,0,2-3.06c-.13,1.65-.21,3.23-.21,4.72,3.21,1.68,10.47-4.69,10.47-4.69s9.31-7.11,18-21.1c-17,7.86-46.32,7.15-59.33,6.37A54.2,54.2,0,0,0,72.52,331.94Z"/><polygon class="cls-18" points="93.01 327.58 61.25 327.58 72.91 371.07 93.01 371.07 113.1 371.07 124.77 327.58 93.01 327.58"/><rect class="cls-45" x="72.91" y="371.07" width="40.19" height="5.54"/><polygon class="cls-46" points="86.34 376.61 86.34 371.07 79.19 327.58 61.25 327.58 72.91 371.07 72.91 376.61 86.34 376.61"/><line class="cls-47" x1="72.91" y1="371.07" x2="113.1" y2="371.07"/><path class="cls-48" d="M67.45,422.78c20.31,16,47.48,27.73,75.55,34.53,78.43,19,180.44,18.61,244.74-14.39a175.3,175.3,0,0,0,42.44-30.45V394.86H67.45Z"/><rect class="cls-49" x="67.45" y="394.86" width="362.72" height="12.72"/><line class="cls-50" x1="184.57" y1="376.61" x2="318.03" y2="376.61"/><path class="cls-51" d="M433.31,231c0,6.16-1,11.15-2.3,11.15s-2.3-5-2.3-11.15,1-11.16,2.3-11.16S433.31,224.79,433.31,231Z"/><path class="cls-51" d="M431,228.65c6.16,0,11.15,1,11.15,2.3s-5,2.3-11.15,2.3-11.16-1-11.16-2.3S424.85,228.65,431,228.65Z"/><path class="cls-52" d="M224.35,68.88c0,4.25-.71,7.7-1.59,7.7s-1.59-3.45-1.59-7.7.71-7.7,1.59-7.7S224.35,64.63,224.35,68.88Z"/><ellipse class="cls-52" cx="222.76" cy="68.88" rx="7.7" ry="1.59"/><polygon class="cls-36" points="255.33 46.49 255.3 54.08 255.26 61.66 248.71 57.84 242.16 54.01 248.75 50.25 255.33 46.49"/><path class="cls-36" d="M440.28,264.25a5,5,0,1,1-5-5.05A5,5,0,0,1,440.28,264.25Z"/><path class="cls-51" d="M71,173.11a5,5,0,1,1-5-5.05A5.06,5.06,0,0,1,71,173.11Z"/><rect class="cls-3" x="384.94" y="107.37" width="48.1" height="66.3"/><rect class="cls-4" x="389.32" y="114.85" width="39.38" height="1.71"/><rect class="cls-4" x="389.32" y="118.49" width="39.38" height="1.71"/><rect class="cls-4" x="389.32" y="129.41" width="39.38" height="1.71"/><rect class="cls-4" x="389.32" y="133.04" width="39.38" height="1.71"/><rect class="cls-4" x="389.32" y="136.68" width="39.38" height="1.71"/><rect class="cls-4" x="389.32" y="140.32" width="39.38" height="1.71"/><rect class="cls-4" x="389.32" y="143.96" width="39.38" height="1.71"/><rect class="cls-4" x="389.32" y="147.6" width="39.38" height="1.71"/><rect class="cls-4" x="389.32" y="158.52" width="39.38" height="1.71"/><rect class="cls-4" x="389.32" y="162.15" width="39.38" height="1.71"/><rect class="cls-4" x="389.32" y="165.79" width="39.38" height="1.71"/><polyline class="cls-5" points="384.94 107.37 384.94 173.67 433.04 173.67"/><path class="cls-51" d="M424.79,322.45H412.56v-5h12.23a7.74,7.74,0,0,0,0-15.47H412.56v-5h12.23a12.74,12.74,0,0,1,0,25.47Z"/><rect class="cls-53" x="412.56" y="317.45" width="11.67" height="5"/><rect class="cls-53" x="412.56" y="296.98" width="11.67" height="5"/><rect class="cls-51" x="386.94" y="289.67" width="33.33" height="39.29"/><path class="cls-53" d="M392.75,289.67h-5.81V329h24.74C389,321.67,392.75,289.67,392.75,289.67Z"/></g></g></g></svg>