<svg width="16" height="16" viewBox="0 0 16 16" fill="none" xmlns="http://www.w3.org/2000/svg">
  <path d="M14.0667 8.33332L15 9.27332L10.6467 13.6667L8.33333 11.3333L9.26667 10.3933L10.6467 11.78L14.0667 8.33332ZM7.33333 2.66666C8.04058 2.66666 8.71885 2.94761 9.21895 3.4477C9.71905 3.9478 10 4.62608 10 5.33332C10 6.04057 9.71905 6.71884 9.21895 7.21894C8.71885 7.71904 8.04058 7.99999 7.33333 7.99999C6.62609 7.99999 5.94781 7.71904 5.44772 7.21894C4.94762 6.71884 4.66667 6.04057 4.66667 5.33332C4.66667 4.62608 4.94762 3.9478 5.44772 3.4477C5.94781 2.94761 6.62609 2.66666 7.33333 2.66666ZM7.33333 3.99999C6.97971 3.99999 6.64057 4.14047 6.39052 4.39051C6.14048 4.64056 6 4.9797 6 5.33332C6 5.68695 6.14048 6.02608 6.39052 6.27613C6.64057 6.52618 6.97971 6.66666 7.33333 6.66666C7.68696 6.66666 8.02609 6.52618 8.27614 6.27613C8.52619 6.02608 8.66667 5.68695 8.66667 5.33332C8.66667 4.9797 8.52619 4.64056 8.27614 4.39051C8.02609 4.14047 7.68696 3.99999 7.33333 3.99999ZM7.33333 8.66666C7.78667 8.66666 8.33333 8.72666 8.94 8.83999L7.82667 9.95332L7.33333 9.93332C5.35333 9.93332 3.26667 10.9067 3.26667 11.3333V12.0667H7.4L8.66667 13.3333H2V11.3333C2 9.55999 5.55333 8.66666 7.33333 8.66666Z" fill="#5C6B88"/>
</svg>
