<svg width="169" height="169" viewBox="0 0 169 169" fill="none" xmlns="http://www.w3.org/2000/svg">
<rect width="169" height="169" rx="84.5" fill="white"/>
<path d="M69.5 131.75L65.875 124.5C65.125 123.083 64.5833 121.625 64.25 120.125C63.9167 118.625 63.75 117.083 63.75 115.5C63.75 113.583 64.0217 111.688 64.565 109.815C65.1083 107.942 65.9617 106.17 67.125 104.5C67.7917 103.583 68.2917 102.605 68.625 101.565C68.9583 100.525 69.125 99.42 69.125 98.25C69.125 96.9167 68.875 95.6667 68.375 94.5L66.875 91C66.0417 89.4167 65.3533 87.7917 64.81 86.125C64.2667 84.4583 63.9967 82.75 64 81V62C64 59.9167 63.2717 58.1467 61.815 56.69C60.3583 55.2333 58.5867 54.5033 56.5 54.5C54.75 54.5 53.2083 55.0833 51.875 56.25C50.5417 57.4167 49.6667 58.8333 49.25 60.5C52.0833 61.5833 54.4167 63.395 56.25 65.935C58.0833 68.475 59 71.33 59 74.5C59 78.6667 57.5417 82.2083 54.625 85.125C51.7083 88.0417 48.1667 89.5 44 89.5C39.8333 89.5 36.2917 88.0417 33.375 85.125C30.4583 82.2083 29 78.6667 29 74.5C29 71.1667 29.9583 68.2083 31.875 65.625C33.7917 63.0417 36.25 61.25 39.25 60.25C39.6667 55.75 41.5217 52 44.815 49C48.1083 46 52.0033 44.5 56.5 44.5C57.0833 44.5 57.6667 44.52 58.25 44.56C58.8333 44.6 59.4167 44.705 60 44.875C63.6667 42.9583 67.52 41.5833 71.56 40.75C75.6 39.9167 79.7467 39.5 84 39.5C88.1667 39.5 92.2717 39.9167 96.315 40.75C100.358 41.5833 104.212 42.9583 107.875 44.875C108.458 44.7083 109.042 44.6033 109.625 44.56C110.208 44.5167 110.792 44.4967 111.375 44.5C115.958 44.5 119.897 46 123.19 49C126.483 52 128.337 55.75 128.75 60.25C131.75 61.25 134.208 63.0417 136.125 65.625C138.042 68.2083 139 71.1667 139 74.5C139 78.6667 137.542 82.2083 134.625 85.125C131.708 88.0417 128.167 89.5 124 89.5C119.833 89.5 116.292 88.0417 113.375 85.125C110.458 82.2083 109 78.6667 109 74.5C109 71.3333 109.917 68.4783 111.75 65.935C113.583 63.3917 115.917 61.58 118.75 60.5C118.333 58.8333 117.458 57.4167 116.125 56.25C114.792 55.0833 113.208 54.5 111.375 54.5C109.292 54.5 107.542 55.23 106.125 56.69C104.708 58.15 104 59.92 104 62V81C104 82.75 103.708 84.4583 103.125 86.125C102.542 87.7917 101.875 89.4167 101.125 91C100.542 92.1667 100.02 93.3333 99.56 94.5C99.1 95.6667 98.8717 96.9167 98.875 98.25C98.875 99.4167 99.0417 100.522 99.375 101.565C99.7083 102.608 100.208 103.587 100.875 104.5C101.958 106.167 102.792 107.938 103.375 109.815C103.958 111.692 104.25 113.587 104.25 115.5C104.25 117.083 104.063 118.625 103.69 120.125C103.317 121.625 102.795 123.083 102.125 124.5L98.5 131.75L89.5 127.25L93.125 120C93.5417 119.333 93.8333 118.625 94 117.875C94.1667 117.125 94.25 116.333 94.25 115.5C94.25 114.5 94.0833 113.542 93.75 112.625C93.4167 111.708 93 110.833 92.5 110C91.3333 108.333 90.4383 106.5 89.815 104.5C89.1917 102.5 88.8783 100.458 88.875 98.375C88.875 96.4583 89.1467 94.645 89.69 92.935C90.2333 91.225 90.9617 89.5383 91.875 87.875C92.375 86.7083 92.855 85.5633 93.315 84.44C93.775 83.3167 94.0033 82.17 94 81V62C94 60 94.3133 58.105 94.94 56.315C95.5667 54.525 96.4617 52.8783 97.625 51.375C95.4583 50.7083 93.23 50.2283 90.94 49.935C88.65 49.6417 86.3367 49.4967 84 49.5C81.6633 49.5033 79.35 49.65 77.06 49.94C74.77 50.23 72.5417 50.7083 70.375 51.375C71.5417 52.875 72.4383 54.5217 73.065 56.315C73.6917 58.1083 74.0033 60.0033 74 62V81C74 82.1667 74.2083 83.3333 74.625 84.5C75.0417 85.6667 75.5417 86.7917 76.125 87.875C76.9583 89.5417 77.6667 91.23 78.25 92.94C78.8333 94.65 79.125 96.4617 79.125 98.375C79.125 100.458 78.8133 102.48 78.19 104.44C77.5667 106.4 76.67 108.253 75.5 110C74.9167 110.833 74.48 111.708 74.19 112.625C73.9 113.542 73.7533 114.5 73.75 115.5C73.75 116.333 73.8333 117.125 74 117.875C74.1667 118.625 74.4583 119.333 74.875 120L78.5 127.25L69.5 131.75Z" fill="black"/>
</svg>
