<svg width="169" height="169" viewBox="0 0 169 169" fill="none"
    xmlns="http://www.w3.org/2000/svg">
    <rect width="169" height="169" rx="84.5" fill="white"/>
    <path fill-rule="evenodd" clip-rule="evenodd" d="M64.1572 45.26C64.1572 39.9973 66.2478 34.9502 69.9691 31.229C73.6903 27.5077 78.7374 25.4171 84.0001 25.4171C89.2627 25.4171 94.3099 27.5077 98.0311 31.229C101.752 34.9502 103.843 39.9973 103.843 45.26C103.843 50.5226 101.752 55.5697 98.0311 59.291C94.3099 63.0122 89.2627 65.1028 84.0001 65.1028C78.7374 65.1028 73.6903 63.0122 69.9691 59.291C66.2478 55.5697 64.1572 50.5226 64.1572 45.26ZM44.9658 77.7628C49.0051 73.9283 54.3621 71.7905 59.9315 71.7905C65.501 71.7905 70.858 73.9283 74.8972 77.7628L74.9829 77.8485L84.0001 86.8657L93.0258 77.8485L93.1115 77.7628C97.1499 73.9333 102.503 71.7987 108.069 71.7987C113.634 71.7987 118.987 73.9333 123.026 77.7628C125.03 79.6665 126.626 81.9575 127.717 84.4968C128.808 87.036 129.372 89.7706 129.375 92.5345C129.377 95.2983 128.818 98.0338 127.731 100.575C126.644 103.116 125.052 105.41 123.052 107.317L86.9829 142.374C86.183 143.152 85.1114 143.587 83.9958 143.587C82.8802 143.587 81.8086 143.152 81.0087 142.374L44.9487 107.317C42.9491 105.411 41.3575 103.118 40.2706 100.578C39.1837 98.0378 38.6241 95.3034 38.6257 92.5406C38.6273 89.7778 39.1901 87.0441 40.28 84.5053C41.3698 81.9665 42.964 79.667 44.9658 77.7628Z" fill="black"/>
</svg>
