<svg width="183" height="169" viewBox="0 0 183 169" fill="none"
    xmlns="http://www.w3.org/2000/svg">
    <rect width="183" height="169" rx="84.5" fill="white"/>
    <g clip-path="url(#clip0_4104_467)">
        <path d="M72.75 24.5C65.7422 24.5 59.9297 29.3047 58.2656 35.7969C58.0781 35.7969 57.9375 35.75 57.75 35.75C49.4766 35.75 42.75 42.4766 42.75 50.75C42.75 51.875 42.8906 52.9766 43.1484 54.0312C36.3047 56.8438 31.5 63.5469 31.5 71.375C31.5 74.3281 32.25 77.0703 33.4453 79.5547C27.8203 82.7891 24 88.7891 24 95.75C24 103.555 28.7813 110.258 35.5781 113.07C35.3672 114.148 35.25 115.25 35.25 116.375C35.25 125.703 42.7969 133.25 52.125 133.25C53.0859 133.25 54.0234 133.133 54.9375 132.969C57.1875 139.648 63.4219 144.5 70.875 144.5C80.2031 144.5 87.75 136.953 87.75 127.625V39.5C87.75 31.2266 81.0234 24.5 72.75 24.5ZM159 95.75C159 88.7891 155.18 82.7891 149.555 79.5547C150.773 77.0703 151.5 74.3281 151.5 71.375C151.5 63.5469 146.695 56.8438 139.852 54.0312C140.086 52.9766 140.25 51.875 140.25 50.75C140.25 42.4766 133.523 35.75 125.25 35.75C125.062 35.75 124.898 35.7969 124.734 35.7969C123.07 29.3047 117.258 24.5 110.25 24.5C101.977 24.5 95.25 31.2031 95.25 39.5V127.625C95.25 136.953 102.797 144.5 112.125 144.5C119.578 144.5 125.812 139.648 128.062 132.969C128.977 133.133 129.914 133.25 130.875 133.25C140.203 133.25 147.75 125.703 147.75 116.375C147.75 115.25 147.633 114.148 147.422 113.07C154.219 110.258 159 103.555 159 95.75Z" fill="black"/>
    </g>
    <defs>
        <clipPath id="clip0_4104_467">
            <rect width="135" height="120" fill="white" transform="translate(24 24.5)"/>
        </clipPath>
    </defs>
</svg>
