<svg width="21" height="25" viewBox="0 0 21 25" fill="none" xmlns="http://www.w3.org/2000/svg">
<path d="M18.0482 3.63002C14.1432 -0.211228 7.81198 -0.211228 3.90698 3.63002C2.97984 4.53582 2.24312 5.61781 1.74013 6.81241C1.23714 8.00701 0.978027 9.2901 0.978027 10.5863C0.978027 11.8824 1.23714 13.1655 1.74013 14.3601C2.24312 15.5547 2.97984 16.6367 3.90698 17.5425L10.977 24.4988L18.0482 17.5425C18.9754 16.6367 19.7121 15.5547 20.2151 14.3601C20.7181 13.1655 20.9772 11.8824 20.9772 10.5863C20.9772 9.2901 20.7181 8.00701 20.2151 6.81241C19.7121 5.61781 18.9754 4.53582 18.0482 3.63002ZM10.977 13.8738C10.142 13.8738 9.35823 13.5488 8.76698 12.9588C8.18167 12.3722 7.85295 11.5774 7.85295 10.7488C7.85295 9.92013 8.18167 9.12533 8.76698 8.53877C9.35698 7.94877 10.142 7.62377 10.977 7.62377C11.812 7.62377 12.597 7.94877 13.187 8.53877C13.7723 9.12533 14.101 9.92013 14.101 10.7488C14.101 11.5774 13.7723 12.3722 13.187 12.9588C12.597 13.5488 11.812 13.8738 10.977 13.8738Z" fill="#205CD4"/>
</svg>
