<svg width="45" height="43" viewBox="0 0 45 43" fill="none" xmlns="http://www.w3.org/2000/svg">
<path d="M22.4998 9.90832L5.42714 25.6856C5.30058 25.8052 5.13886 25.8608 4.9998 25.9599V41.1011C4.9998 41.4485 5.1315 41.7817 5.36592 42.0273C5.60034 42.273 5.91828 42.411 6.2498 42.411H38.7498C39.0813 42.411 39.3993 42.273 39.6337 42.0273C39.8681 41.7817 39.9998 41.4485 39.9998 41.1011V25.9632C39.867 25.8682 39.7092 25.8142 39.5889 25.7012L22.4998 9.90832ZM29.9998 31.2766C29.9998 31.4503 29.934 31.6169 29.8167 31.7397C29.6995 31.8625 29.5406 31.9315 29.3748 31.9315H24.9998V36.5163C24.9998 36.69 24.934 36.8566 24.8167 36.9794C24.6995 37.1023 24.5406 37.1713 24.3748 37.1713H20.6248C20.459 37.1713 20.3001 37.1023 20.1829 36.9794C20.0656 36.8566 19.9998 36.69 19.9998 36.5163V31.9315H15.6248C15.459 31.9315 15.3001 31.8625 15.1829 31.7397C15.0656 31.6169 14.9998 31.4503 14.9998 31.2766V27.3468C14.9998 27.1731 15.0656 27.0065 15.1829 26.8836C15.3001 26.7608 15.459 26.6918 15.6248 26.6918H19.9998V22.1071C19.9998 21.9333 20.0656 21.7668 20.1829 21.6439C20.3001 21.5211 20.459 21.4521 20.6248 21.4521H24.3748C24.5406 21.4521 24.6995 21.5211 24.8167 21.6439C24.934 21.7668 24.9998 21.9333 24.9998 22.1071V26.6918H29.3748C29.5406 26.6918 29.6995 26.7608 29.8167 26.8836C29.934 27.0065 29.9998 27.1731 29.9998 27.3468V31.2766ZM44.585 19.8376L24.5896 1.33482C24.0173 0.792588 23.2733 0.492371 22.5018 0.492371C21.7302 0.492371 20.9862 0.792588 20.4139 1.33482L0.413863 19.8376C0.291692 19.9526 0.192332 20.0916 0.121459 20.2468C0.0505865 20.4021 0.00958981 20.5704 0.000811231 20.7422C-0.00796735 20.914 0.0156442 21.086 0.0702969 21.2483C0.12495 21.4105 0.209573 21.5599 0.319332 21.6879L1.99199 23.638C2.10169 23.7661 2.23439 23.8702 2.38251 23.9445C2.53063 24.0187 2.69125 24.0617 2.85522 24.0709C3.01918 24.0801 3.18327 24.0553 3.3381 23.9981C3.49294 23.9408 3.63549 23.8521 3.75761 23.7371L21.6732 7.17629C21.9016 6.96517 22.1957 6.84866 22.5002 6.84866C22.8047 6.84866 23.0988 6.96517 23.3271 7.17629L41.2428 23.7363C41.3649 23.8513 41.5074 23.94 41.6623 23.9973C41.8171 24.0545 41.9812 24.0793 42.1452 24.0701C42.3091 24.0609 42.4698 24.0179 42.6179 23.9436C42.766 23.8694 42.8987 23.7652 43.0084 23.6372L44.6803 21.6871C44.9016 21.4285 45.0159 21.0885 44.998 20.7416C44.9801 20.3948 44.8316 20.0696 44.585 19.8376Z" fill="black"/>
</svg>
