<svg width="30" height="31" viewBox="0 0 30 31" fill="none" xmlns="http://www.w3.org/2000/svg">
<path d="M27 0.968994H3C1.35 0.968994 0 2.31899 0 3.96899V30.969L6 24.969H27C28.65 24.969 30 23.619 30 21.969V3.96899C30 2.31899 28.65 0.968994 27 0.968994ZM6 18.969V15.264L16.32 4.94399C16.62 4.64399 17.085 4.64399 17.385 4.94399L20.04 7.59899C20.34 7.89899 20.34 8.36399 20.04 8.66399L9.705 18.969H6ZM22.5 18.969H12.75L15.75 15.969H22.5C23.325 15.969 24 16.644 24 17.469C24 18.294 23.325 18.969 22.5 18.969Z" fill="black"/>
</svg>
